<?xml version="1.0" standalone="no"?>
<!DOCTYPE svg PUBLIC "-//W3C//DTD SVG 20010904//EN"
 "http://www.w3.org/TR/2001/REC-SVG-20010904/DTD/svg10.dtd">
<svg version="1.0" xmlns="http://www.w3.org/2000/svg"
 width="16.000000pt" height="16.000000pt" viewBox="0 0 16.000000 16.000000"
 preserveAspectRatio="xMidYMid meet">
<metadata>
Created by potrace 1.11, written by Peter Selinger 2001-2013
</metadata>
<g transform="translate(0.000000,16.000000) scale(0.002873,-0.002873)"
fill="#000000" stroke="none">
<path d="M2258 5404 c-2 -1 -37 -5 -78 -8 -41 -3 -85 -7 -96 -10 -12 -2 -39
-7 -60 -10 -63 -10 -96 -20 -429 -122 -66 -20 -154 -53 -195 -74 -222 -112
-392 -304 -479 -540 -46 -127 -55 -179 -55 -345 0 -172 13 -241 70 -379 23
-55 89 -173 103 -186 11 -10 61 -79 61 -84 0 -3 -10 -6 -22 -6 -80 0 -252 -68
-369 -146 -302 -200 -397 -525 -248 -844 30 -64 151 -282 195 -351 l23 -37
-49 -31 c-140 -91 -244 -234 -285 -392 -18 -68 -24 -205 -12 -280 36 -231 223
-446 453 -519 76 -25 250 -36 317 -21 29 7 37 6 37 -5 0 -40 49 -204 84 -279
138 -298 426 -520 745 -575 31 -5 108 -18 171 -29 111 -20 140 -24 233 -37 23
-3 49 -7 57 -9 8 -2 49 -7 90 -11 41 -3 89 -8 105 -10 46 -6 276 -6 315 0 19
3 58 8 85 11 116 13 243 30 295 40 14 3 41 7 60 10 19 3 71 12 115 20 44 8 91
16 105 19 88 15 240 72 325 123 171 102 330 280 407 458 30 67 78 232 78 266
0 18 4 20 23 14 47 -14 222 -14 291 0 182 38 363 177 449 345 130 255 75 580
-132 779 -54 51 -150 116 -186 125 -14 4 -25 13 -25 22 0 8 53 119 118 247
134 265 187 410 207 572 4 28 8 61 10 75 4 25 12 83 21 142 5 41 6 196 0 223
-2 11 -7 40 -11 65 -4 25 -19 78 -32 119 -90 267 -310 484 -578 569 -63 19
-49 16 -185 41 -93 17 -160 33 -230 56 -89 30 -226 104 -317 171 -42 31 -158
138 -257 238 -193 194 -264 258 -362 324 -62 41 -252 140 -309 160 -16 5 -39
13 -50 18 -29 10 -31 11 -130 38 -85 23 -121 29 -225 42 -49 6 -238 12 -242 8z"/>
</g>
</svg>
