<svg id="Layer_1" data-name="Layer 1" xmlns="http://www.w3.org/2000/svg" viewBox="0 0 512.69 556.97"><defs><style>.cls-1{fill:#fff;stroke-width:19.81px;}.cls-1,.cls-2,.cls-4{stroke:#2c1414;}.cls-1,.cls-2{stroke-linecap:round;stroke-linejoin:round;}.cls-2{fill:none;stroke-width:14.34px;}.cls-3,.cls-4{fill:#2c1414;}.cls-4{stroke-miterlimit:10;stroke-width:5.41px;}</style></defs><title>logo_large_17Feb23</title><path class="cls-1" d="M438.7,333a173.22,173.22,0,0,0,4.75-40.38c0-99.36-84.08-179.91-187.8-179.91S67.86,193.26,67.86,292.62A173.22,173.22,0,0,0,72.61,333,56.37,56.37,0,1,0,99.67,440.38l1.1,10.09a91.44,91.44,0,0,0,74.1,80c29.17,5.44,61,10.41,80,10.41s50.8-5,80-10.41a91.44,91.44,0,0,0,74.1-80l1.18-10.84A56.38,56.38,0,1,0,438.7,333Z"/><path class="cls-2" d="M186,393.64H123c-16.84,0-30.92-15.14-32.54-35l-4.83-59.25,14.71-3a273.82,273.82,0,0,1,110.18-.18h0a17.35,17.35,0,0,1,13.74,19.27l-6,45.45C215.8,379.75,202.09,393.64,186,393.64Z"/><path class="cls-2" d="M325.34,393.64h63c16.84,0,30.92-15.14,32.54-35l4.83-59.25-14.71-3a273.81,273.81,0,0,0-110.17-.18h0A17.35,17.35,0,0,0,287,315.46l6,45.45C295.52,379.75,309.23,393.64,325.34,393.64Z"/><rect class="cls-3" x="223.72" y="302.54" width="63.86" height="18.92"/><path class="cls-2" d="M289.54,472.16s-15.17,11.94-33.88,11.94-33.88-11.94-33.88-11.94"/><path class="cls-3" d="M417.55,122.14h0a122.09,122.09,0,0,1-71.32-35.4l-23-23.35A158.62,158.62,0,0,0,165.15,22.64L134.1,31.84C64.3,52.53,40.47,138.76,88.5,192.19c-35.87,2.51-98,42.67-60.6,107.94C57,351,78.09,391.86,88.36,412.28a3.22,3.22,0,0,0,6.09-1.64l-4.1-70.3a106.84,106.84,0,0,1,18.14-68.76c8.36-12.24,16.11-25.38,16.66-32.74.78-10.38,3-22.74-3.27-32.47h0a16.26,16.26,0,0,0,21.94-14.44c1.42-29.36,39.71-52.24,89.61-25.28,47.16,25.48,93.26,44.92,131,48.65a32.78,32.78,0,0,1,26.18,18.12c2.87,5.81,6.42,12.05,10.08,18.1,13.76,22.72,20.08,50.13,16.15,75.56l-5.86,83a3.22,3.22,0,0,0,6.1,1.66c11.2-22.63,34.54-69.57,64.2-128,5.47-10.78,10.59-33,10.59-33l3.63-26.8A90.37,90.37,0,0,0,417.55,122.14Z"/><path class="cls-2" d="M185.3,324s-10.73-9.44-24-9.44-24,9.44-24,9.44"/><path class="cls-2" d="M195.21,264.18S180,252.24,161.33,252.24s-33.88,11.94-33.88,11.94"/><ellipse class="cls-4" cx="161.33" cy="342.81" rx="16.69" ry="30.6"/><path class="cls-2" d="M365.69,324s-10.73-9.44-24-9.44-24,9.44-24,9.44"/><path class="cls-2" d="M375.6,264.18s-15.17-11.94-33.88-11.94-33.88,11.94-33.88,11.94"/><ellipse class="cls-4" cx="341.72" cy="342.81" rx="16.69" ry="30.6"/><line class="cls-2" x1="421.23" y1="393.88" x2="464.31" y2="371.44"/><line class="cls-2" x1="444.89" y1="381.56" x2="454.76" y2="404"/><line class="cls-2" x1="87.36" y1="393.88" x2="44.28" y2="371.44"/><line class="cls-2" x1="63.7" y1="381.56" x2="53.83" y2="404"/></svg>